<svg width="501" height="170" viewBox="0 0 501 170" fill="none" xmlns="http://www.w3.org/2000/svg">
<path d="M6.72042e-06 140.22C6.72042e-06 124.86 6.72042e-06 109.38 6.72042e-06 93.78C6.72042e-06 78.06 6.72042e-06 62.52 6.72042e-06 47.16C4.92001 47.16 9.90001 47.16 14.94 47.16C19.98 47.16 24.9 47.16 29.7 47.16C29.7 48 29.7 48.84 29.7 49.68C29.7 50.52 29.7 51.36 29.7 52.2C33.42 49.56 37.62 47.58 42.3 46.26C46.98 44.94 52.08 44.58 57.6 45.18C57.6 49.98 57.6 54.84 57.6 59.76C57.6 64.68 57.6 69.54 57.6 74.34C48.12 73.02 41.1 73.86 36.54 76.86C31.98 79.74 29.7 84.48 29.7 91.08C29.7 99.12 29.7 107.28 29.7 115.56C29.7 123.84 29.7 132.06 29.7 140.22C24.9 140.22 19.98 140.22 14.94 140.22C9.90001 140.22 4.92001 140.22 6.72042e-06 140.22ZM79.6556 169.02C82.0556 162.66 84.5156 156.24 87.0356 149.76C89.6756 143.4 92.1956 137.1 94.5956 130.86C88.9556 117.06 83.1956 103.14 77.3156 89.1C71.5556 74.94 65.8556 60.96 60.2156 47.16C65.4956 47.16 70.7756 47.16 76.0556 47.16C81.3356 47.16 86.5556 47.16 91.7156 47.16C94.8356 54.84 97.9556 62.64 101.076 70.56C104.316 78.48 107.496 86.34 110.616 94.14C113.496 86.34 116.436 78.48 119.436 70.56C122.436 62.64 125.376 54.84 128.256 47.16C133.416 47.16 138.576 47.16 143.736 47.16C148.896 47.16 154.056 47.16 159.216 47.16C151.176 67.2 143.076 87.54 134.916 108.18C126.876 128.7 118.836 148.98 110.796 169.02C105.636 169.02 100.416 169.02 95.1356 169.02C89.9756 169.02 84.8156 169.02 79.6556 169.02ZM198.823 140.22C194.023 140.22 189.103 140.22 184.063 140.22C179.023 140.22 174.043 140.22 169.123 140.22C169.123 118.5 169.123 96.6 169.123 74.52C169.123 52.44 169.123 30.54 169.123 8.82001C174.043 8.82001 179.023 8.82001 184.063 8.82001C189.103 8.82001 194.023 8.82001 198.823 8.82001C198.823 16.02 198.823 23.28 198.823 30.6C198.823 37.92 198.823 45.18 198.823 52.38C201.823 49.98 205.243 48.12 209.083 46.8C212.923 45.36 217.003 44.64 221.323 44.64C227.323 44.64 233.023 45.84 238.423 48.24C243.823 50.52 248.563 53.82 252.643 58.14C256.843 62.46 260.083 67.62 262.363 73.62C264.763 79.62 265.963 86.28 265.963 93.6C265.963 100.8 264.763 107.4 262.363 113.4C260.083 119.4 256.843 124.62 252.643 129.06C248.563 133.38 243.823 136.74 238.423 139.14C233.023 141.54 227.263 142.74 221.143 142.74C216.823 142.74 212.743 142.02 208.903 140.58C205.183 139.26 201.823 137.34 198.823 134.82C198.823 135.66 198.823 136.56 198.823 137.52C198.823 138.36 198.823 139.26 198.823 140.22ZM217.183 116.46C223.063 116.46 227.683 114.42 231.043 110.34C234.523 106.14 236.263 100.56 236.263 93.6C236.263 86.64 234.523 81.12 231.043 77.04C227.683 72.96 223.063 70.92 217.183 70.92C211.423 70.92 206.803 73.02 203.323 77.22C199.843 81.3 198.103 86.76 198.103 93.6C198.103 100.44 199.843 105.96 203.323 110.16C206.803 114.36 211.423 116.46 217.183 116.46ZM311.323 140.22C306.523 140.22 301.603 140.22 296.563 140.22C291.523 140.22 286.543 140.22 281.623 140.22C281.623 118.5 281.623 96.6 281.623 74.52C281.623 52.44 281.623 30.54 281.623 8.82001C286.543 8.82001 291.523 8.82001 296.563 8.82001C301.603 8.82001 306.523 8.82001 311.323 8.82001C311.323 16.02 311.323 23.28 311.323 30.6C311.323 37.92 311.323 45.18 311.323 52.38C314.323 49.98 317.743 48.12 321.583 46.8C325.423 45.36 329.503 44.64 333.823 44.64C339.823 44.64 345.523 45.84 350.923 48.24C356.323 50.52 361.063 53.82 365.143 58.14C369.343 62.46 372.583 67.62 374.863 73.62C377.263 79.62 378.463 86.28 378.463 93.6C378.463 100.8 377.263 107.4 374.863 113.4C372.583 119.4 369.343 124.62 365.143 129.06C361.063 133.38 356.323 136.74 350.923 139.14C345.523 141.54 339.763 142.74 333.643 142.74C329.323 142.74 325.243 142.02 321.403 140.58C317.683 139.26 314.323 137.34 311.323 134.82C311.323 135.66 311.323 136.56 311.323 137.52C311.323 138.36 311.323 139.26 311.323 140.22ZM329.683 116.46C335.563 116.46 340.183 114.42 343.543 110.34C347.023 106.14 348.763 100.56 348.763 93.6C348.763 86.64 347.023 81.12 343.543 77.04C340.183 72.96 335.563 70.92 329.683 70.92C323.923 70.92 319.303 73.02 315.823 77.22C312.343 81.3 310.603 86.76 310.603 93.6C310.603 100.44 312.343 105.96 315.823 110.16C319.303 114.36 323.923 116.46 329.683 116.46ZM409.063 36.54C405.583 36.54 402.403 35.7 399.523 34.02C396.763 32.34 394.543 30.12 392.863 27.36C391.183 24.6 390.343 21.54 390.343 18.18C390.343 14.82 391.183 11.82 392.863 9.18C394.543 6.42 396.763 4.2 399.523 2.52C402.403 0.840001 405.583 9.53674e-07 409.063 9.53674e-07C412.423 9.53674e-07 415.483 0.840001 418.243 2.52C421.123 4.2 423.403 6.42 425.083 9.18C426.763 11.82 427.603 14.82 427.603 18.18C427.603 21.54 426.763 24.6 425.083 27.36C423.403 30.12 421.123 32.34 418.243 34.02C415.483 35.7 412.423 36.54 409.063 36.54ZM394.123 140.22C394.123 124.86 394.123 109.38 394.123 93.78C394.123 78.06 394.123 62.52 394.123 47.16C399.043 47.16 404.023 47.16 409.063 47.16C414.103 47.16 419.023 47.16 423.823 47.16C423.823 62.52 423.823 78.06 423.823 93.78C423.823 109.38 423.823 124.86 423.823 140.22C419.023 140.22 414.103 140.22 409.063 140.22C404.023 140.22 399.043 140.22 394.123 140.22ZM454.271 140.22C454.271 129.18 454.271 118.08 454.271 106.92C454.271 95.76 454.271 84.72 454.271 73.8C451.871 73.8 449.411 73.8 446.891 73.8C444.491 73.8 442.091 73.8 439.691 73.8C439.691 69.36 439.691 64.92 439.691 60.48C439.691 56.04 439.691 51.6 439.691 47.16C442.091 47.16 444.491 47.16 446.891 47.16C449.411 47.16 451.871 47.16 454.271 47.16C454.271 42.96 454.271 38.82 454.271 34.74C454.271 30.54 454.271 26.4 454.271 22.32C459.191 22.32 464.171 22.32 469.211 22.32C474.251 22.32 479.171 22.32 483.971 22.32C483.971 26.4 483.971 30.54 483.971 34.74C483.971 38.82 483.971 42.96 483.971 47.16C486.731 47.16 489.551 47.16 492.431 47.16C495.311 47.16 498.131 47.16 500.891 47.16C500.891 51.6 500.891 56.04 500.891 60.48C500.891 64.92 500.891 69.36 500.891 73.8C498.131 73.8 495.311 73.8 492.431 73.8C489.551 73.8 486.731 73.8 483.971 73.8C483.971 84.72 483.971 95.76 483.971 106.92C483.971 118.08 483.971 129.18 483.971 140.22C479.171 140.22 474.251 140.22 469.211 140.22C464.171 140.22 459.191 140.22 454.271 140.22Z" fill="white"/>
</svg>
