<?xml version="1.0" encoding="UTF-8"?>
<svg id="Layer_1" data-name="Layer 1" xmlns="http://www.w3.org/2000/svg" viewBox="0 0 235.13 165.78">
  <defs>
    <style>
      .cls-1 {
        fill: #ffffff;
      }
    </style>
  </defs>
  <path class="cls-1" d="M230.76,54.72l-11.09-18.34-9.64-15.9h0l-2.75-4.53v.05c-5.4-8.69-14.99-14.5-25.97-14.5s-20.51,5.75-25.91,14.39c-1.84,2.95-5.21,4.59-8.69,4.59s-6.89-1.8-8.8-4.8c-5.93-9.32-16.76-15.22-28.88-14.02-2.27.14-2.56,1.45-1.61,1.86,10.25,4.4,17.55,15.65,17.55,28.86,0,17.05-12.14,30.88-27.11,30.88-7.29,0-13.9-3.29-18.76-8.63-1.39-1.53-3.83-1.37-4.89.4l-19.11,31.74c-1.4,2.33-4.11,3.53-6.78,3.02l-22.9-4.42c-13.31-2.57-24.3,10.43-19.55,23.13l10.56,28.24c1.22,3.27.1,6.96-2.75,9l-8.83,6.31c-5.35,3.82-2.64,12.25,3.93,12.25h23.22c5.96,0,11.44-3.3,14.23-8.57l31.98-60.35c1.47-2.78,5.73-1.46,5.36,1.66-2.96,25.36-12.23,45.5-22.01,55.8-3.59,3.78-3.4,11.46,5.91,11.46h58.11c6.25,0,9.26-7.74,4.59-11.89-19.35-17.21-27.84-36.01-29.3-63.74-.27-5.03,3.81-9.24,8.85-9.24,21.04,0,73.85,0,107.12,0,12.68,0,20.47-13.85,13.91-24.7Z"/>
  <path class="cls-1" d="M198.67,123.13l-25.56,29.87c-3.8,4.44-.64,11.29,5.2,11.29h40.45c5.99,0,8.99-7.18,4.8-11.47-6.15-6.29-12.46-15.26-15.17-27.15-1.04-4.55-6.69-6.08-9.72-2.54Z"/>
  <ellipse class="cls-1" cx="91.22" cy="31.43" rx="13.94" ry="16.94"/>
</svg>